<?xml version="1.0" standalone="no"?>
<!DOCTYPE svg PUBLIC "-//W3C//DTD SVG 20010904//EN"
 "http://www.w3.org/TR/2001/REC-SVG-20010904/DTD/svg10.dtd">
<svg version="1.0" xmlns="http://www.w3.org/2000/svg"
 width="16.000000pt" height="16.000000pt" viewBox="0 0 16.000000 16.000000"
 preserveAspectRatio="xMidYMid meet">
<metadata>
Created by potrace 1.11, written by Peter Selinger 2001-2013
</metadata>
<g transform="translate(0.000000,16.000000) scale(0.001356,-0.001356)"
fill="#000000" stroke="none">
<path d="M3564 11790 c-12 -11 -70 -45 -114 -66 -19 -10 -43 -24 -52 -32 -10
-8 -18 -12 -18 -8 0 4 -6 2 -12 -4 -12 -10 -128 -81 -218 -132 -19 -11 -38
-25 -41 -30 -3 -5 -8 -8 -11 -6 -2 1 -55 -31 -118 -72 -63 -41 -119 -77 -125
-79 -5 -2 -12 -7 -15 -10 -3 -4 -30 -22 -60 -41 -30 -19 -60 -39 -67 -45 -7
-5 -19 -16 -27 -22 -8 -7 -19 -13 -23 -13 -4 0 -24 -14 -43 -30 -19 -16 -38
-30 -42 -30 -4 0 -13 -6 -20 -13 -7 -7 -31 -26 -53 -42 -56 -41 -269 -208
-275 -215 -3 -4 -43 -40 -90 -81 -148 -131 -269 -260 -372 -394 -57 -75 -148
-229 -148 -251 0 -8 -5 -14 -10 -14 -6 0 -9 -3 -8 -7 3 -11 -13 -57 -22 -63
-12 -9 -127 -328 -145 -400 -2 -8 -8 -27 -14 -42 -6 -16 -8 -28 -5 -28 2 0 0
-8 -5 -17 -5 -10 -11 -31 -14 -48 -12 -63 -18 -91 -27 -120 -8 -30 -20 -90
-25 -132 -2 -12 -6 -34 -9 -50 -11 -48 -17 -84 -21 -127 -2 -22 -6 -51 -9 -64
-6 -26 -18 -178 -20 -239 -1 -24 -3 -43 -6 -43 -7 0 -3 -510 4 -610 12 -165
27 -302 37 -326 4 -12 6 -24 4 -26 -4 -4 17 -141 30 -203 3 -11 9 -40 14 -65
5 -25 10 -47 11 -50 4 -7 6 -17 25 -105 25 -112 127 -442 154 -492 5 -10 19
-40 31 -68 32 -74 122 -256 141 -285 9 -14 29 -47 44 -75 36 -66 228 -354 254
-382 12 -12 21 -25 21 -28 0 -6 51 -73 83 -109 19 -22 16 -56 -9 -104 -8 -15
-14 -34 -14 -42 0 -9 -4 -20 -9 -25 -4 -6 -20 -46 -35 -90 -15 -44 -29 -87
-33 -95 -3 -8 -7 -19 -9 -25 -11 -34 -96 -283 -101 -295 -3 -8 -7 -21 -9 -28
-1 -8 -6 -21 -10 -30 -4 -9 -9 -24 -10 -32 -2 -8 -15 -49 -29 -90 -15 -41 -28
-79 -29 -85 -1 -5 -9 -30 -16 -55 -7 -25 -15 -49 -16 -55 -2 -5 -10 -35 -19
-65 -9 -30 -18 -62 -20 -70 -2 -8 -20 -73 -40 -145 -20 -71 -39 -137 -42 -145
-3 -8 -7 -25 -9 -37 -1 -13 -6 -33 -10 -45 -5 -13 -9 -25 -9 -28 -15 -65 -32
-138 -35 -147 -1 -5 -3 -12 -4 -18 -1 -5 -7 -35 -14 -65 -7 -30 -14 -65 -17
-77 -3 -13 -7 -33 -11 -45 -3 -13 -7 -34 -10 -48 -3 -14 -12 -59 -21 -100 -8
-41 -16 -89 -17 -106 -2 -17 -5 -35 -8 -40 -3 -5 -9 -31 -12 -59 -4 -27 -11
-79 -17 -115 -26 -167 -27 -180 -44 -355 -24 -245 -24 -569 0 -722 9 -61 23
-141 30 -168 1 -5 5 -28 10 -50 4 -22 11 -47 16 -56 4 -9 10 -27 13 -40 5 -30
55 -167 69 -194 6 -11 12 -22 12 -25 2 -14 74 -153 107 -205 21 -33 38 -65 38
-72 0 -6 4 -13 8 -15 5 -1 25 -28 45 -58 125 -188 334 -413 537 -580 30 -25
57 -47 60 -50 15 -16 169 -126 260 -186 117 -77 189 -120 270 -160 30 -16 57
-32 58 -36 2 -4 8 -8 14 -8 5 0 51 -20 101 -44 107 -51 375 -159 394 -159 7 0
13 -4 13 -9 0 -4 9 -8 20 -8 12 0 34 -7 50 -15 17 -9 32 -15 35 -15 3 0 7 -1
10 -1 3 -1 8 -2 13 -3 4 -1 39 -13 77 -26 39 -13 72 -25 75 -25 3 -1 25 -7 50
-15 25 -7 50 -14 55 -15 6 -2 62 -17 125 -34 198 -54 228 -62 275 -67 17 -2
37 -7 45 -10 8 -4 24 -8 35 -9 11 -2 51 -10 88 -19 38 -9 73 -14 77 -11 5 3
11 1 15 -4 3 -5 13 -10 23 -10 17 1 58 -5 117 -16 17 -2 41 -7 55 -9 14 -3 25
-5 25 -6 0 -2 19 -4 110 -14 33 -3 71 -9 85 -13 36 -10 1635 -14 1695 -4 44 8
122 18 195 26 14 2 25 4 25 5 0 0 16 3 35 5 42 4 91 13 146 25 23 5 56 12 75
14 19 3 45 7 59 10 14 3 36 8 50 11 14 3 35 7 48 10 13 2 33 7 45 11 12 4 31
8 42 8 11 1 25 4 30 7 6 4 28 10 50 14 45 10 54 12 58 15 1 1 11 3 22 4 16 3
84 20 150 40 6 2 24 6 40 10 25 6 42 11 58 16 1 1 67 23 147 51 80 27 150 51
155 52 28 8 253 96 310 122 17 7 66 30 110 51 44 20 82 38 85 39 7 1 85 42
128 67 20 12 46 26 57 32 11 6 34 21 52 34 17 12 36 22 41 22 6 0 12 3 14 8 2
4 27 23 56 41 98 62 250 183 351 278 24 24 49 43 53 43 5 0 7 4 4 8 -2 4 9 17
25 27 16 11 29 25 29 32 0 6 9 15 20 18 11 3 20 10 20 14 0 4 19 28 42 53 50
53 178 214 178 223 0 3 8 15 18 26 11 10 25 32 33 47 7 15 23 41 35 57 12 17
32 50 44 75 13 25 28 48 34 52 6 4 8 8 4 8 -5 0 8 29 27 65 19 36 34 68 35 70
0 3 7 21 15 41 8 20 15 42 15 49 0 6 3 15 7 19 4 3 8 12 9 19 1 7 9 33 18 58
20 59 46 181 40 191 -3 4 -1 8 5 8 5 0 8 8 6 17 -1 10 0 22 3 27 3 5 6 28 7
50 0 23 4 46 7 51 8 12 3 544 -6 600 -7 52 -15 119 -21 175 -7 65 -14 111 -35
235 -29 169 -31 176 -46 242 -8 34 -14 65 -13 70 1 4 0 15 -3 23 -5 13 -25
100 -32 140 -2 8 -6 22 -9 30 -6 17 -29 117 -32 140 -1 8 -5 22 -8 30 -5 12
-83 297 -92 335 -1 6 -5 17 -8 25 -4 13 -9 30 -22 80 0 3 -6 21 -12 40 -28 86
-87 276 -89 283 -1 4 -2 8 -4 10 -1 1 -3 9 -5 17 -2 8 -34 101 -70 205 -37
105 -68 195 -69 200 -3 11 -19 52 -41 105 -8 19 -30 80 -51 135 -20 55 -40
108 -45 117 -10 19 -6 24 61 78 24 19 48 40 54 45 6 6 45 39 86 75 120 105
303 292 399 410 11 14 26 31 32 39 34 39 79 102 79 110 0 5 3 11 8 13 11 5 82
112 82 125 0 6 4 13 9 15 14 5 76 127 126 250 26 62 50 120 54 128 5 9 12 31
16 50 4 19 11 40 15 45 4 6 11 24 15 40 5 17 10 35 11 40 7 21 36 121 39 135
2 8 4 15 5 15 1 0 3 7 5 15 8 36 16 77 21 100 3 14 9 39 14 55 5 17 11 46 14
65 3 19 10 62 16 95 18 100 26 162 25 184 -1 12 1 21 4 21 4 0 8 21 9 48 1 26
5 67 7 92 16 154 22 525 11 685 -11 155 -32 360 -41 395 -2 8 -7 38 -11 65 -3
28 -8 58 -10 68 -2 9 -6 27 -9 40 -3 12 -8 36 -10 52 -3 17 -8 37 -10 45 -2 8
-7 29 -10 45 -3 17 -8 41 -11 55 -3 14 -7 30 -8 37 -1 7 -5 16 -9 19 -4 4 -7
14 -7 23 0 9 -14 59 -31 111 -17 52 -32 102 -34 110 -2 8 -4 16 -5 18 -2 1 -3
5 -4 10 -1 4 -5 13 -9 20 -5 6 -6 12 -2 12 3 0 -2 15 -12 33 -9 17 -18 37 -19
42 -4 23 -48 125 -80 188 -30 59 -146 237 -177 273 -7 8 -21 25 -32 40 -89
118 -345 384 -509 529 -43 39 -89 79 -101 90 -13 11 -42 36 -65 55 -24 19 -48
40 -54 45 -6 6 -36 30 -66 55 -30 25 -58 49 -62 55 -4 5 -8 7 -8 3 0 -5 -8 0
-18 10 -11 9 -28 24 -38 32 -11 8 -49 37 -84 65 -36 27 -67 52 -70 55 -3 3
-21 16 -40 30 -19 13 -39 28 -45 32 -81 63 -333 238 -343 238 -6 0 -12 4 -14
8 -4 11 -110 82 -121 82 -5 0 -23 -6 -40 -14 -28 -12 -62 -26 -77 -31 -3 -1
-18 -7 -35 -14 -30 -12 -89 -34 -295 -114 -63 -24 -140 -52 -170 -62 -30 -10
-57 -21 -60 -24 -3 -3 -12 -7 -20 -8 -8 0 -91 -27 -185 -58 -93 -32 -174 -58
-180 -59 -5 -1 -14 -4 -20 -8 -9 -5 -61 -18 -82 -20 -5 -1 -23 -7 -40 -15 -18
-7 -33 -10 -33 -7 0 4 -7 0 -17 -7 -9 -8 -18 -13 -20 -11 -1 1 -4 2 -5 1 -2 0
-11 -2 -20 -4 -9 -2 -70 -17 -135 -34 -65 -16 -129 -32 -143 -35 -14 -2 -45
-9 -70 -15 -50 -11 -71 -15 -150 -30 -30 -6 -68 -13 -85 -16 -16 -4 -49 -8
-71 -9 -23 -2 -46 -6 -50 -8 -23 -13 -281 -15 -381 -4 -86 10 -135 16 -160 21
-13 3 -35 7 -50 10 -16 3 -39 8 -53 10 -14 3 -36 8 -50 10 -14 3 -36 7 -50 10
-14 4 -36 8 -50 11 -14 3 -32 7 -40 9 -8 2 -30 7 -48 10 -34 6 -118 26 -212
51 -30 8 -64 16 -75 18 -11 3 -51 14 -90 26 -70 22 -106 32 -167 49 -18 5 -55
16 -83 25 -59 20 -67 23 -80 26 -5 1 -86 29 -180 62 -93 33 -181 63 -195 68
-14 4 -56 20 -95 35 -38 14 -74 28 -80 29 -13 4 -45 16 -70 26 -11 5 -69 27
-130 50 -98 38 -257 99 -386 150 -26 10 -50 15 -55 10z"/>
</g>
</svg>
