<?xml version="1.0" encoding="UTF-8" standalone="no"?>
<!-- Created with Inkscape (http://www.inkscape.org/) -->

<svg
   xmlns:dc="http://purl.org/dc/elements/1.1/"
   xmlns:cc="http://creativecommons.org/ns#"
   xmlns:rdf="http://www.w3.org/1999/02/22-rdf-syntax-ns#"
   xmlns:svg="http://www.w3.org/2000/svg"
   xmlns="http://www.w3.org/2000/svg"
   xmlns:sodipodi="http://sodipodi.sourceforge.net/DTD/sodipodi-0.dtd"
   xmlns:inkscape="http://www.inkscape.org/namespaces/inkscape"
   width="233"
   height="295"
   viewBox="0 0 232.99999 295"
   id="svg2"
   version="1.1"
   inkscape:version="0.91 r13725"
   sodipodi:docname="owl.svg">
  <defs
     id="defs4" />
  <sodipodi:namedview
     id="base"
     pagecolor="#ffffff"
     bordercolor="#666666"
     borderopacity="1.0"
     inkscape:pageopacity="0.0"
     inkscape:pageshadow="2"
     inkscape:zoom="2"
     inkscape:cx="148.06844"
     inkscape:cy="125.8262"
     inkscape:document-units="px"
     inkscape:current-layer="layer1"
     showgrid="false"
     inkscape:window-width="1368"
     inkscape:window-height="714"
     inkscape:window-x="0"
     inkscape:window-y="0"
     inkscape:window-maximized="1"
     units="px" />
  <metadata
     id="metadata7">
    <rdf:RDF>
      <cc:Work
         rdf:about="">
        <dc:format>image/svg+xml</dc:format>
        <dc:type
           rdf:resource="http://purl.org/dc/dcmitype/StillImage" />
        <dc:title></dc:title>
      </cc:Work>
    </rdf:RDF>
  </metadata>
  <g
     inkscape:label="Layer 1"
     inkscape:groupmode="layer"
     id="layer1"
     transform="translate(0,-757.36215)">
    <path
       style="fill:#62493c;fill-opacity:1;fill-rule:evenodd;stroke:#423128;stroke-width:1px;stroke-linecap:butt;stroke-linejoin:miter;stroke-opacity:1"
       d="m 8.0588682,878.66852 c -9.10435,-24.00695 -9.7003534,-57.20173 2.3535538,-81.59619 9.155492,-18.52871 48.14224,-39.07107 48.14224,-39.07107 0,0 28.054004,11.65636 45.393468,15.41422 16.29182,3.5308 19.21425,4.01012 35.46455,0.29289 17.15737,-3.92473 38.27215,-12.87869 38.27215,-12.87869 0,0 38.32209,24.50835 46.72801,44.24265 10.40571,24.42915 9.66899,57.21295 -0.58579,79.65685 -6.56948,14.37814 -22.91428,26.34315 -22.91428,26.34315 0,0 23.19851,56.06534 17.50006,85.99999 -3.48909,18.32858 -20.02597,34.25458 -37.00007,41.99998 -40.03068,18.2665 -91.477008,18.146 -132.000258,1 -19.10723,-8.0845 -38.42967,-24.7625 -43.0000804,-44.99998 -7.03592,-31.15457 17.0000604,-90.99999 17.0000604,-90.99999 0,0 -10.503153,-12.6138 -15.3536138,-25.40381 z"
       id="path3370"
       inkscape:connector-curvature="0"
       sodipodi:nodetypes="sacsscascsssscs" />
    <ellipse
       style="fill:#ffffff;fill-opacity:1;stroke:#423128;stroke-opacity:1"
       id="path3372"
       cx="60.839527"
       cy="837.5415"
       rx="47.740768"
       ry="47.740673" />
    <ellipse
       style="fill:#ffffff;fill-opacity:1;stroke:#423128;stroke-opacity:1"
       id="path3372-6"
       cx="171.48576"
       cy="838.10315"
       rx="47.740768"
       ry="47.740673" />
    <ellipse
       style="fill:#3f2f27;fill-opacity:1;stroke:none;stroke-width:0.82655823;stroke-opacity:1"
       id="path3372-7"
       cx="67.704575"
       cy="837.86572"
       rx="35.128796"
       ry="35.128727" />
    <ellipse
       style="fill:#3f2f27;fill-opacity:1;stroke:none;stroke-width:0.82655823;stroke-opacity:1"
       id="path3372-6-5"
       cx="165.12074"
       cy="838.27899"
       rx="35.128796"
       ry="35.128727" />
    <ellipse
       style="fill:#ffffff;fill-opacity:1;stroke:#000000;stroke-width:0.21230641;stroke-opacity:1"
       id="path3372-7-6"
       cx="75.956444"
       cy="843.01923"
       rx="9.0230417"
       ry="9.0230236" />
    <ellipse
       style="fill:#ffffff;fill-opacity:1;stroke:#000000;stroke-width:0.21230641;stroke-opacity:1"
       id="path3372-7-6-9"
       cx="156.41272"
       cy="843.07233"
       rx="9.0230417"
       ry="9.0230236" />
    <path
       style="fill:#fff8e7;fill-opacity:1;fill-rule:evenodd;stroke:#423128;stroke-width:0.89230299px;stroke-linecap:butt;stroke-linejoin:miter;stroke-opacity:1"
       d="m 177.79023,924.42879 c 0,0 35.4962,46.124 30.41145,70.75074 -3.11331,15.07867 -17.86922,28.18067 -33.01527,34.55267 -35.71949,15.0275 -81.625188,14.9284 -117.784208,0.8227 -17.04944,-6.651 -34.29091,-20.3717 -38.36911,-37.02074 -6.27816,-25.63034 28.26915,-72.55921 28.26915,-72.55921 10.15334,-15.93107 116.447308,-11.0269 130.487988,3.45384 z"
       id="path3370-1"
       inkscape:connector-curvature="0"
       sodipodi:nodetypes="csssscc" />
    <path
       style="fill:#fec021;fill-opacity:1;fill-rule:evenodd;stroke:#423128;stroke-width:1px;stroke-linecap:butt;stroke-linejoin:miter;stroke-opacity:1"
       d="m 104.41261,870.07232 c 9.63669,-6.24335 16.34218,-3.69311 22.00004,2 l -12.12134,27.32843 z"
       id="path3458"
       inkscape:connector-curvature="0"
       sodipodi:nodetypes="cccc" />
    <path
       style="fill:#fec021;fill-opacity:1;fill-rule:evenodd;stroke:none;stroke-width:1px;stroke-linecap:butt;stroke-linejoin:miter;stroke-opacity:1"
       d="m 81.404562,963.1157 c 13.98215,-10.96928 44.939188,-10.58883 58.689968,0.56679 17.72562,14.38029 18.04436,46.52291 0,60.64621 -14.16968,11.0906 -45.627748,10.2764 -59.397088,-1.1336 -17.37144,-14.3948 -17.1491,-46.07083 0.70712,-60.0794 z"
       id="path4424"
       inkscape:connector-curvature="0"
       sodipodi:nodetypes="sssss" />
    <path
       style="fill:none;fill-rule:evenodd;stroke:#fec021;stroke-width:10;stroke-linecap:butt;stroke-linejoin:miter;stroke-miterlimit:4;stroke-dasharray:none;stroke-opacity:1"
       d="m 87.619852,959.2519 45.092748,1.13489 c 0,0 -4.95735,-29.83241 -19.32545,-30.64193 -15.051548,-0.84803 -25.767298,29.50704 -25.767298,29.50704 z"
       id="path4426"
       inkscape:connector-curvature="0"
       sodipodi:nodetypes="ccsc" />
    <path
       style="fill:#62493c;fill-opacity:1;fill-rule:evenodd;stroke:none;stroke-width:1.01685929px;stroke-linecap:butt;stroke-linejoin:miter;stroke-opacity:1"
       d="m 27.791562,924.10049 c 0,0 69.95751,27.90681 72.10953,58.87254 1.707428,24.56847 -51.60829,54.94767 -51.60829,54.94767 l -36.05392,-42.38821 2.12082,-37.67841 z"
       id="path4277"
       inkscape:connector-curvature="0"
       sodipodi:nodetypes="cscccc" />
    <path
       style="fill:#62493c;fill-opacity:1;fill-rule:evenodd;stroke:none;stroke-width:1.01685929px;stroke-linecap:butt;stroke-linejoin:miter;stroke-opacity:1"
       d="m 190.83615,925.86809 c 0,0 -65.71486,26.4926 -67.86689,57.45833 -1.70743,24.56848 51.6083,54.94768 51.6083,54.94768 l 36.05392,-28.9532 2.12182,-34.84997 z"
       id="path4277-2"
       inkscape:connector-curvature="0"
       sodipodi:nodetypes="cscccc" />
    <path
       style="fill:none;fill-rule:evenodd;stroke:#423128;stroke-width:1.82943225;stroke-linecap:butt;stroke-linejoin:miter;stroke-miterlimit:4;stroke-dasharray:none;stroke-opacity:1"
       d="m 32.699142,964.64679 c 6.23423,-1.92714 6.87491,-7.58329 9.85226,-11.68168 1.22334,5.0444 1.79793,10.45951 7.11483,13.16472"
       id="path4296"
       inkscape:connector-curvature="0"
       sodipodi:nodetypes="ccc" />
    <path
       style="fill:none;fill-rule:evenodd;stroke:#423128;stroke-width:1.82943225;stroke-linecap:butt;stroke-linejoin:miter;stroke-miterlimit:4;stroke-dasharray:none;stroke-opacity:1"
       d="m 53.105372,980.05801 c 6.23423,-1.92714 6.87491,-7.58329 9.85227,-11.68168 1.22333,5.04439 1.79792,10.45951 7.11482,13.16472"
       id="path4296-7"
       inkscape:connector-curvature="0"
       sodipodi:nodetypes="ccc" />
    <path
       style="fill:none;fill-rule:evenodd;stroke:#423128;stroke-width:1.82943225;stroke-linecap:butt;stroke-linejoin:miter;stroke-miterlimit:4;stroke-dasharray:none;stroke-opacity:1"
       d="m 24.063072,990.80592 c 6.23424,-1.92713 6.87491,-7.58329 9.85227,-11.68167 1.22333,5.04439 1.79793,10.4595 7.11483,13.16472"
       id="path4296-7-0"
       inkscape:connector-curvature="0"
       sodipodi:nodetypes="ccc" />
    <path
       style="fill:none;fill-rule:evenodd;stroke:#423128;stroke-width:1.82943225;stroke-linecap:butt;stroke-linejoin:miter;stroke-miterlimit:4;stroke-dasharray:none;stroke-opacity:1"
       d="m 52.190662,1003.3833 c 6.23423,-1.9272 6.8749,-7.58332 9.85226,-11.68171 1.22333,5.0444 1.79793,10.45951 7.11483,13.16471"
       id="path4296-7-0-9"
       inkscape:connector-curvature="0"
       sodipodi:nodetypes="ccc" />
    <path
       style="fill:none;fill-rule:evenodd;stroke:#423128;stroke-width:1.82943225;stroke-linecap:butt;stroke-linejoin:miter;stroke-miterlimit:4;stroke-dasharray:none;stroke-opacity:1"
       d="m 33.210262,1013.9025 c 6.23423,-1.9271 6.8749,-7.5833 9.85226,-11.6817 1.22333,5.0444 1.79793,10.4595 7.11483,13.1648"
       id="path4296-7-0-9-3"
       inkscape:connector-curvature="0"
       sodipodi:nodetypes="ccc" />
    <path
       style="fill:none;fill-rule:evenodd;stroke:#423128;stroke-width:1.82943225;stroke-linecap:butt;stroke-linejoin:miter;stroke-miterlimit:4;stroke-dasharray:none;stroke-opacity:1"
       d="m 143.89113,980.97272 c 6.23423,-1.92713 6.87491,-7.58329 9.85225,-11.68167 1.22334,5.04439 1.79794,10.4595 7.11484,13.16472"
       id="path4296-7-0-9-6"
       inkscape:connector-curvature="0"
       sodipodi:nodetypes="ccc" />
    <path
       style="fill:none;fill-rule:evenodd;stroke:#423128;stroke-width:1.82943225;stroke-linecap:butt;stroke-linejoin:miter;stroke-miterlimit:4;stroke-dasharray:none;stroke-opacity:1"
       d="m 156.01114,1003.3833 c 6.23423,-1.9272 6.8749,-7.58332 9.85226,-11.68171 1.22333,5.0444 1.79793,10.45951 7.11483,13.16471"
       id="path4296-7-0-9-6-0"
       inkscape:connector-curvature="0"
       sodipodi:nodetypes="ccc" />
    <path
       style="fill:none;fill-rule:evenodd;stroke:#423128;stroke-width:1.82943225;stroke-linecap:butt;stroke-linejoin:miter;stroke-miterlimit:4;stroke-dasharray:none;stroke-opacity:1"
       d="m 166.75907,961.76368 c 6.23423,-1.92713 6.87491,-7.58329 9.85226,-11.68167 1.22334,5.04439 1.79793,10.4595 7.11483,13.16472"
       id="path4296-7-0-9-6-0-6"
       inkscape:connector-curvature="0"
       sodipodi:nodetypes="ccc" />
    <path
       style="fill:none;fill-rule:evenodd;stroke:#423128;stroke-width:1.82943225;stroke-linecap:butt;stroke-linejoin:miter;stroke-miterlimit:4;stroke-dasharray:none;stroke-opacity:1"
       d="m 178.6504,1011.6157 c 6.23424,-1.9271 6.87492,-7.5833 9.85226,-11.6817 1.22335,5.0444 1.79794,10.4595 7.11484,13.1648"
       id="path4296-7-0-9-6-0-6-2"
       inkscape:connector-curvature="0"
       sodipodi:nodetypes="ccc" />
    <path
       style="fill:none;fill-rule:evenodd;stroke:#423128;stroke-width:1.82943225;stroke-linecap:butt;stroke-linejoin:miter;stroke-miterlimit:4;stroke-dasharray:none;stroke-opacity:1"
       d="m 175.22022,985.77498 c 6.23423,-1.92713 6.8749,-7.58329 9.85226,-11.68167 1.22333,5.04439 1.79793,10.4595 7.11483,13.16472"
       id="path4296-7-0-9-6-0-6-2-6"
       inkscape:connector-curvature="0"
       sodipodi:nodetypes="ccc" />
    <ellipse
       style="fill:#3f2f27;fill-opacity:1;stroke:none;stroke-width:1;stroke-miterlimit:4;stroke-dasharray:none;stroke-opacity:1"
       id="path4428"
       cx="110.8709"
       cy="981.36401"
       rx="8.1317434"
       ry="8.1317272" />
    <path
       style="fill:#3f2f27;fill-opacity:1;fill-rule:evenodd;stroke:none;stroke-width:1px;stroke-linecap:butt;stroke-linejoin:miter;stroke-opacity:1"
       d="m 111.22442,977.12136 8.83885,37.12314 -18.73837,-0.3536 z"
       id="path4430"
       inkscape:connector-curvature="0"
       sodipodi:nodetypes="cccc" />
  </g>
</svg>
